# xmcd CD database file
#
# Track frame offsets:
#	150
#	12568
#	26341
#	39730
#	53691
#	65703
#	76493
#	89381
#	102661
#	113572
#	126463
#	137776
#	150581
#	163489
#	173193
#	185520
#	198235
#	210477
#	221218
#
# Disc length: 3129 seconds
#
# Revision: 3
# Processed by: cddbd v1.5.2PL0 Copyright (c) Steve Scherf et al.
# Submitted via: CDex 1.51
#
DISCID=190c3713
DTITLE=Billie Holiday - Billy Holiday  [CD 05-10]
DYEAR=1900
DGENRE=Jazz
TTITLE0=I Can't Believe That You're In Love With  Me  
TTITLE1=If Dreams Come True  
TTITLE2=Now They Call It Swing  
TTITLE3=On The Sentimental Side  
TTITLE4=Back In Your Own Backyard  
TTITLE5=When A Woman Loves A Man  
TTITLE6=You Go To My Head  
TTITLE7=The Moon Looks Down And Laughs  
TTITLE8=If I Were You  
TTITLE9=Forget If You Can  
TTITLE10=Having Myself A Time  
TTITLE11=Says My Heart  
TTITLE12=I Wish I Had You  
TTITLE13=I'm Gonna Lock My Heart  
TTITLE14=The Very Thought Of You  
TTITLE15=I Can't Get Started  
TTITLE16=I've Got A Date With A Dream  
TTITLE17=You Can't Be Mine  
TTITLE18=Everybody's Laughing  
EXTD=Volume 5 of a 10-CD set.
EXTT0=
EXTT1=
EXTT2=
EXTT3=
EXTT4=
EXTT5=
EXTT6=
EXTT7=
EXTT8=
EXTT9=
EXTT10=
EXTT11=
EXTT12=
EXTT13=
EXTT14=
EXTT15=
EXTT16=
EXTT17=
EXTT18=
PLAYORDER=
